<svg width="40" height="40" viewBox="0 0 40 40" fill="none" xmlns="http://www.w3.org/2000/svg">
<g clip-path="url(#clip0)">
<path d="M25.7065 22.5244C25.0165 22.9494 24.2839 23.3673 23.5345 23.779L25.4384 27.8125C25.613 28.1836 25.9584 28.4448 26.3637 28.512C26.4321 28.5229 26.5004 28.5291 26.5688 28.5291C26.9032 28.5291 27.228 28.3948 27.4648 28.1506L30.3542 25.1782C30.6117 24.9134 30.7387 24.5472 30.7021 24.1797L30.218 19.4287C29.4862 19.9628 28.7005 20.5156 27.8733 21.0844L28.1557 23.8537L26.9289 25.1147C26.9289 25.1148 25.7065 22.5245 25.7065 22.5244Z" fill="#2A1B3D"/>
<path d="M39.441 3.58657C38.7023 2.88025 36.7743 2.46946 34.6462 2.50181C32.6889 2.55472 29.6268 3.04836 26.1592 5.10131C25.1617 5.69104 23.8601 6.60887 22.1899 7.9001L7.34185 6.82733C6.97057 6.7985 6.6105 6.93433 6.35398 7.19612L3.51399 10.0693C3.22834 10.3589 3.10502 10.7672 3.18319 11.1637C3.26252 11.5589 3.53367 11.8915 3.90846 12.0537L12.4479 15.7331C10.7423 16.6759 8.50046 17.6334 7.28696 18.115L2.82684 17.3018C2.40185 17.2286 1.98301 17.3618 1.69253 17.6633L0.344439 19.058C-0.128125 19.5469 -0.112243 20.318 0.378617 20.7877L7.03161 27.1517C7.26983 27.3787 7.58351 27.5001 7.90348 27.5001C8.04751 27.5001 8.19154 27.476 8.33191 27.4257C8.78252 27.2635 19.4354 23.4208 25.5242 19.398C32.9061 14.5223 36.5716 10.8117 37.7766 9.5926C38.9122 8.44292 41.0037 5.08448 39.441 3.58657ZM35.9844 7.87734C34.8244 9.05088 31.2946 12.6232 24.13 17.3559C19.1826 20.6243 10.7312 23.9001 8.20625 24.8442L3.00871 19.8723L3.03681 19.8423L7.18567 20.5991C7.41759 20.6375 7.65201 20.6171 7.86945 20.5355C8.46884 20.3048 13.7825 18.2291 15.8594 16.4261C16.1792 16.1475 16.3331 15.7282 16.2671 15.3138C16.2012 14.8983 15.9241 14.545 15.5334 14.3769L6.5641 10.5126L7.73976 9.32232L22.4915 10.3877C22.8016 10.413 23.1142 10.3157 23.3595 10.1247C25.1068 8.76128 26.4828 7.78 27.4486 7.20827C30.4497 5.43292 33.0565 5.00646 34.7145 4.96204C36.1272 4.91644 37.0734 5.14822 37.48 5.27315C37.347 5.86633 36.7719 7.08078 35.9844 7.87734Z" fill="#2A1B3D"/>
<path d="M5.00012 35H35.0001V37.5H5.00012V35Z" fill="#2A1B3D"/>
</g>
<defs>
<clipPath id="clip0">
<rect width="40" height="40" fill="white"/>
</clipPath>
</defs>
</svg>
