<svg width="38" height="41" viewBox="0 0 38 41" fill="none" xmlns="http://www.w3.org/2000/svg">
<path fill-rule="evenodd" clip-rule="evenodd" d="M36.4747 19.6211V40.9292H32.0496V37.6372H5.95044V40.9292H1.52534V19.6212H0V16.3449H3.7218L5.79755 9.07805C6.40912 6.93832 7.43155 4.99119 9.42887 4.99119H14.0006V2.11258C14.0006 0.821332 13.7635 0.931058 14.8407 0.931793H23.2926C24.1958 0.931793 23.9995 0.833961 23.9995 1.91685V4.99112H29.3419C31.3392 4.99112 32.4914 6.89796 32.9732 9.07798L34.5785 16.3448H38V19.621H36.4747L36.4747 19.6211ZM12.3721 31.0633H25.4441V34.5321H12.3721V31.0633ZM3.00717 22.9826C6.33828 23.1011 8.37556 24.6725 8.89936 27.9448H3.00717V22.9826ZM34.5742 22.9826C31.2438 23.1011 29.2058 24.6725 28.6827 27.9448H34.5742V22.9826ZM5.31299 16.3448H32.6878L31.5145 10.2516C31.1927 8.58074 30.269 7.13793 28.7472 7.13793H9.81528C8.29421 7.13793 7.51367 8.62017 7.0487 10.2516L5.31299 16.3448V16.3448Z" fill="#2A1B3D"/>
</svg>
