<svg width="40" height="40" viewBox="0 0 40 40" fill="none" xmlns="http://www.w3.org/2000/svg">
<g clip-path="url(#clip0)">
<path d="M3.33333 14.1666C3.33333 14.6273 3.70606 15 4.16669 15H5.83333C6.29396 15 6.66669 14.6273 6.66669 14.1666V12.5C6.66669 12.0394 6.29396 11.6666 5.83333 11.6666H4.16661C3.70599 11.6666 3.33325 12.0394 3.33325 12.5V14.1666H3.33333Z" fill="#2A1B3D"/>
<path d="M15 3.33337H12.5C12.0394 3.33337 11.6666 3.70611 11.6666 4.16673V5.83337C11.6666 6.294 12.0394 6.66673 12.5 6.66673H15C15.4606 6.66673 15.8333 6.294 15.8333 5.83337V4.16665C15.8333 3.70611 15.4606 3.33337 15 3.33337Z" fill="#2A1B3D"/>
<path d="M20.8334 3.33337H18.3334C17.8727 3.33337 17.5 3.70611 17.5 4.16673V5.83337C17.5 6.294 17.8727 6.66673 18.3334 6.66673H20.8334C21.294 6.66673 21.6667 6.294 21.6667 5.83337V4.16665C21.6666 3.70611 21.294 3.33337 20.8334 3.33337Z" fill="#2A1B3D"/>
<path d="M15 8.33337H12.5C12.0394 8.33337 11.6666 8.70611 11.6666 9.16673V10.8334C11.6666 11.294 12.0394 11.6667 12.5 11.6667H15C15.4606 11.6667 15.8333 11.294 15.8333 10.8334V9.16673C15.8333 8.70611 15.4606 8.33337 15 8.33337Z" fill="#2A1B3D"/>
<path d="M20.8334 8.33337H18.3334C17.8727 8.33337 17.5 8.70611 17.5 9.16673V10.8334C17.5 11.294 17.8727 11.6667 18.3334 11.6667H20.8334C21.294 11.6667 21.6667 11.294 21.6667 10.8334V9.16673C21.6666 8.70611 21.294 8.33337 20.8334 8.33337Z" fill="#2A1B3D"/>
<path d="M15 13.3334H12.5C12.0394 13.3334 11.6666 13.7061 11.6666 14.1667V15.8334C11.6666 16.294 12.0394 16.6667 12.5 16.6667H15C15.4606 16.6667 15.8333 16.294 15.8333 15.8334V14.1667C15.8333 13.7061 15.4606 13.3334 15 13.3334Z" fill="#2A1B3D"/>
<path d="M20.8334 13.3334H18.3334C17.8727 13.3334 17.5 13.7061 17.5 14.1667V15.8334C17.5 16.294 17.8727 16.6667 18.3334 16.6667H20.8334C21.294 16.6667 21.6667 16.294 21.6667 15.8334V14.1667C21.6666 13.7061 21.294 13.3334 20.8334 13.3334Z" fill="#2A1B3D"/>
<path d="M5.83333 16.6666H4.16661C3.70599 16.6666 3.33325 17.0394 3.33325 17.5V19.1666C3.33325 19.6273 3.70599 20 4.16661 20H5.83325C6.29388 20 6.66661 19.6273 6.66661 19.1666V17.5C6.66661 17.0394 6.29395 16.6666 5.83333 16.6666Z" fill="#2A1B3D"/>
<path d="M5.83333 21.6666H4.16661C3.70599 21.6666 3.33325 22.0394 3.33325 22.5V24.1666C3.33325 24.6273 3.70599 25 4.16661 25H5.83325C6.29388 25 6.66661 24.6273 6.66661 24.1666V22.5C6.66661 22.0394 6.29395 21.6666 5.83333 21.6666Z" fill="#2A1B3D"/>
<path d="M33.3334 13.8937V11.6666C33.3334 9.82828 31.8376 8.33328 30 8.33328H25V3.33328C25 1.49492 23.5042 0 21.6666 0H11.6666C9.82906 0 8.33328 1.49492 8.33328 3.33336V8.33336H3.33328C1.49578 8.33336 0 9.82828 0 11.6666V27.5C0 27.9606 0.372734 28.3334 0.833359 28.3334H9.16672H21.1474C23.5868 34.1823 29.1279 39.4888 29.4271 39.7722C29.5883 39.9244 29.7934 40.0001 30 40.0001C30.2067 40.0001 30.4118 39.9244 30.5729 39.7722C30.957 39.4084 40 30.7755 40 23.3334C40 18.9023 37.2515 15.2394 33.3334 13.8937ZM8.33336 26.6666H1.66664V11.6666C1.66664 10.7479 2.41375 10 3.33328 10H8.33328V26.6666H8.33336ZM25 10H30C30.9196 10 31.6666 10.7479 31.6666 11.6666V13.4777C31.1245 13.39 30.5706 13.3333 30 13.3333V12.5C30 12.0394 29.6273 11.6666 29.1666 11.6666H27.5C27.0394 11.6666 26.6666 12.0394 26.6666 12.5V13.8937C26.0834 14.0941 25.526 14.343 25 14.6413V10ZM18.3334 26.6666H15V20H18.3334V26.6666ZM20.5485 26.6666H20V23.3333V19.1666C20 18.706 19.6273 18.3333 19.1666 18.3333H14.1666C13.706 18.3333 13.3333 18.706 13.3333 19.1666V26.6666H10V3.33336C10 2.41461 10.7471 1.66672 11.6666 1.66672H21.6666C22.5863 1.66672 23.3333 2.41461 23.3333 3.33336V15.8352C21.2816 17.6541 20 20.3136 20 23.3334C20 24.4289 20.213 25.5496 20.5485 26.6666ZM30 37.9916C28.0306 35.9831 21.6666 29.0462 21.6666 23.3334C21.6666 18.6605 25.3272 15 30 15C34.6728 15 38.3334 18.6605 38.3334 23.3334C38.3334 29.0462 31.9694 35.983 30 37.9916Z" fill="#2A1B3D"/>
<path d="M30 18.3334C27.2428 18.3334 25 20.5762 25 23.3334C25 26.0906 27.2428 28.3334 30 28.3334C32.7572 28.3334 35 26.0906 35 23.3334C35 20.5762 32.7572 18.3334 30 18.3334ZM30 26.6666C28.1624 26.6666 26.6666 25.1717 26.6666 23.3333C26.6666 21.4949 28.1624 20 30 20C31.8376 20 33.3334 21.4949 33.3334 23.3334C33.3334 25.1718 31.8376 26.6666 30 26.6666Z" fill="#2A1B3D"/>
</g>
<defs>
<clipPath id="clip0">
<rect width="40" height="40" fill="white"/>
</clipPath>
</defs>
</svg>
