<svg width="40" height="40" viewBox="0 0 40 40" fill="none" xmlns="http://www.w3.org/2000/svg">
<path fill-rule="evenodd" clip-rule="evenodd" d="M37.4823 32.5908H5.50026C3.99192 32.5908 2.19245 29.6623 2.19245 27.7547C2.15933 24.5288 2.28479 21.401 2.3686 18.2474C2.77459 14.6533 3.89177 11.3649 4.99983 8.07264C5.27153 7.38453 5.5981 6.71216 6.26192 6.71216H17.851C18.9036 7.2984 20.0418 7.74549 20.5211 9.26414C23.8471 19.383 30.4186 24.2194 37.9542 25.926L37.9601 32.0524C37.9601 32.2943 37.689 32.5908 37.4823 32.5908Z" fill="#2A1B3D"/>
<path fill-rule="evenodd" clip-rule="evenodd" d="M7.63006 2.22226C7.19298 2.22226 7.20636 3.2717 7.63006 3.2717H9.51432C11.1073 4.0673 12.0477 5.19876 12.4858 6.71987H13.2092V6.71452H13.9239C14.362 5.19345 15.3025 4.06729 16.8954 3.2717H18.7363C19.1907 3.2717 19.1219 2.22226 18.7363 2.22226H7.63006ZM11.4635 3.2717H14.9375C14.1886 4.05137 13.3781 4.84433 13.3781 6.06129H13.2092H13.0316C13.0316 4.84052 12.2144 4.05375 11.4635 3.2717Z" fill="#2A1B3D"/>
<path fill-rule="evenodd" clip-rule="evenodd" d="M4.38042 15.4332H18.9469C19.3007 15.4332 19.4325 14.5298 19.2652 13.9651C18.7393 12.2276 18.0976 8.83118 17.3689 8.83118H6.17089C5.56408 8.83118 4.75469 12.2823 4.0466 14.0078C3.90594 14.6936 4.04528 15.4332 4.38042 15.4332Z" fill="white"/>
<path d="M7.02804 24.0316C7.02804 24.9398 6.43239 25.6761 5.69761 25.6761C4.96284 25.6761 4.36719 24.9398 4.36719 24.0316C4.36719 23.1233 4.96284 22.387 5.69761 22.387C6.43239 22.387 7.02804 23.1233 7.02804 24.0316Z" fill="white"/>
<path d="M18.0147 24.0316C18.0147 24.9398 17.4191 25.6761 16.6843 25.6761C15.9495 25.6761 15.3539 24.9398 15.3539 24.0316C15.3539 23.1233 15.9495 22.3871 16.6843 22.3871C17.4191 22.3871 18.0147 23.1233 18.0147 24.0316Z" fill="white"/>
<path fill-rule="evenodd" clip-rule="evenodd" d="M24.2274 19.2407V25.2238L22.0121 23.9672C21.8014 21.4422 21.7819 18.87 21.7693 16.296C22.5886 17.2778 23.4678 18.6249 24.2274 19.2407Z" fill="white"/>
<path fill-rule="evenodd" clip-rule="evenodd" d="M27.5806 22.5042L27.6129 27.1091L25.4946 26.0122C25.4455 23.4873 25.5068 23.2121 25.4942 20.6382C26.4105 21.6 26.7887 21.7886 27.5806 22.5042Z" fill="white"/>
<path fill-rule="evenodd" clip-rule="evenodd" d="M28.674 23.3218V27.432C29.2808 27.8353 29.9831 28.0499 30.7421 28.1523V24.367L28.674 23.3218Z" fill="white"/>
<path fill-rule="evenodd" clip-rule="evenodd" d="M31.5992 24.8755V28.4631C32.1298 28.7184 32.6839 28.7992 33.2447 28.8303V25.3981L31.5992 24.8755Z" fill="white"/>
<path fill-rule="evenodd" clip-rule="evenodd" d="M34.0902 25.7512V28.9715C34.5259 29.1222 34.9724 29.2065 35.4385 29.1693V26.076L34.0902 25.7512Z" fill="white"/>
<path fill-rule="evenodd" clip-rule="evenodd" d="M36.1583 26.2455V29.2964L37.2438 29.5224V26.4292L36.1583 26.2455Z" fill="white"/>
<path fill-rule="evenodd" clip-rule="evenodd" d="M2.1937 35.1503H4.95685V33.4399H9.1202V35.1297H15.2199V33.4348H37.9669V35.1554C31.557 35.4448 25.0271 35.6707 21.6354 37.559H2.18958L2.1937 35.1503Z" fill="#2A1B3D"/>
</svg>
